<svg width="67" height="67" viewBox="0 0 67 67" fill="none" xmlns="http://www.w3.org/2000/svg">
<rect width="67" height="67" fill="#126B92"/>
<path d="M25.984 48.768C24.608 48.768 23.264 48.496 21.952 47.952C20.64 47.408 19.568 46.608 18.736 45.552C17.904 44.496 17.488 43.232 17.488 41.76C17.488 39.84 18.16 38 19.504 36.24C20.848 34.448 22.704 32.992 25.072 31.872L26.032 31.392L25.648 30.96C25.552 30.864 25.2 30.512 24.592 29.904C23.984 29.264 23.472 28.528 23.056 27.696C22.64 26.864 22.432 26.016 22.432 25.152C22.432 24.032 22.8 23.024 23.536 22.128C24.272 21.232 25.296 20.528 26.608 20.016C27.952 19.472 29.456 19.2 31.12 19.2C32.56 19.2 33.84 19.44 34.96 19.92C36.08 20.368 36.96 20.992 37.6 21.792C38.24 22.592 38.56 23.472 38.56 24.432C38.56 25.808 38.128 26.912 37.264 27.744C36.432 28.576 35.168 29.312 33.472 29.952L32.416 30.336L33.376 31.344C34.72 32.688 36.512 34.544 38.752 36.912L39.616 37.872L40.288 37.248C41.184 36.384 41.92 35.456 42.496 34.464C43.072 33.44 43.36 32.64 43.36 32.064C43.36 31.328 42.896 30.8 41.968 30.48C41.904 30.448 41.776 30.384 41.584 30.288C41.392 30.192 41.248 30.096 41.152 30C41.056 29.872 41.008 29.728 41.008 29.568C41.008 29.28 41.12 29.104 41.344 29.04C41.6 28.944 41.952 28.896 42.4 28.896C42.752 28.896 43.408 28.96 44.368 29.088C45.52 29.216 46.4 29.28 47.008 29.28C47.712 29.28 48.864 29.088 50.464 28.704C51.872 28.384 52.8 28.224 53.248 28.224C53.44 28.224 53.616 28.288 53.776 28.416C53.936 28.544 54.016 28.688 54.016 28.848C54.016 29.136 53.856 29.408 53.536 29.664C53.248 29.92 52.88 30.08 52.432 30.144C50.896 30.4 49.424 31.232 48.016 32.64C46.416 34.176 44.8 35.648 43.168 37.056L40.72 39.312L41.584 40.368C42.832 41.872 43.872 42.992 44.704 43.728C45.536 44.432 46.4 44.784 47.296 44.784C48.64 44.784 49.904 44.544 51.088 44.064C51.184 44.032 51.344 43.984 51.568 43.92C51.792 43.824 52 43.776 52.192 43.776C52.448 43.776 52.64 43.824 52.768 43.92C52.928 44.016 53.008 44.192 53.008 44.448C53.008 44.928 52.64 45.52 51.904 46.224C51.2 46.896 50.24 47.488 49.024 48C47.808 48.48 46.512 48.72 45.136 48.72C43.312 48.72 41.84 48.4 40.72 47.76C39.6 47.088 38.384 45.952 37.072 44.352L36.208 43.344L35.92 43.632C34.512 45.296 32.96 46.576 31.264 47.472C29.568 48.336 27.808 48.768 25.984 48.768ZM31.984 28.704C32.432 28.352 32.768 27.792 32.992 27.024C33.216 26.224 33.328 25.36 33.328 24.432C33.328 23.44 33.12 22.608 32.704 21.936C32.288 21.264 31.68 20.928 30.88 20.928C30.272 20.928 29.728 21.168 29.248 21.648C28.768 22.128 28.528 22.736 28.528 23.472C28.528 24.624 28.704 25.552 29.056 26.256C29.408 26.928 29.888 27.584 30.496 28.224L31.456 29.184L31.984 28.704ZM29.488 44.208C30.48 44.208 31.392 44.08 32.224 43.824C33.088 43.568 33.872 43.088 34.576 42.384L34.912 42.048L34.192 41.136C31.792 38.224 29.616 35.68 27.664 33.504L27.088 32.832L26.224 33.312C24.624 34.208 23.824 35.824 23.824 38.16C23.824 40.016 24.336 41.488 25.36 42.576C26.384 43.664 27.76 44.208 29.488 44.208Z" fill="white"/>
</svg>
