<svg width="318" height="70" viewBox="0 0 318 70" fill="none" xmlns="http://www.w3.org/2000/svg">
<rect width="318" height="70" fill="#126B92"/>
<path d="M34.512 51.672C31.6 51.672 29.072 51 26.928 49.656C26.416 49.336 26.08 48.952 25.92 48.504C25.632 47.672 25.408 46.632 25.248 45.384C25.12 44.136 25.088 42.856 25.152 41.544C25.152 41.128 25.472 40.92 26.112 40.92C26.4 40.92 26.608 40.968 26.736 41.064C26.864 41.128 26.992 41.272 27.12 41.496C27.824 43.96 28.88 45.912 30.288 47.352C31.696 48.792 33.312 49.512 35.136 49.512C36.544 49.512 37.648 49.048 38.448 48.12C39.28 47.16 39.696 46.072 39.696 44.856C39.696 43.864 39.504 43.032 39.12 42.36C38.736 41.656 38.176 41.032 37.44 40.488C36.704 39.912 35.632 39.24 34.224 38.472C32.4 37.448 30.96 36.552 29.904 35.784C28.848 35.016 27.936 34.024 27.168 32.808C26.432 31.592 26.064 30.12 26.064 28.392C26.064 26.568 26.544 24.952 27.504 23.544C28.496 22.136 29.84 21.048 31.536 20.28C33.232 19.512 35.136 19.128 37.248 19.128C38.368 19.128 39.472 19.24 40.56 19.464C41.68 19.688 42.624 19.96 43.392 20.28C43.776 20.44 44.048 20.616 44.208 20.808C44.4 21 44.56 21.336 44.688 21.816C45.072 23.352 45.264 25.224 45.264 27.432C45.264 27.592 45.184 27.736 45.024 27.864C44.864 27.992 44.656 28.056 44.4 28.056C44.112 28.056 43.84 27.992 43.584 27.864C43.36 27.704 43.216 27.512 43.152 27.288C42.608 25.368 41.808 23.912 40.752 22.92C39.696 21.928 38.4 21.432 36.864 21.432C33.888 21.432 32.4 22.872 32.4 25.752C32.4 26.776 32.912 27.752 33.936 28.68C34.96 29.608 36.608 30.728 38.88 32.04C41.472 33.608 43.296 35.128 44.352 36.6C45.408 38.072 45.936 39.88 45.936 42.024C45.936 45.224 44.912 47.64 42.864 49.272C40.848 50.872 38.064 51.672 34.512 51.672ZM49.4948 51.144C49.3028 51.144 49.1268 51.096 48.9668 51C48.8068 50.872 48.7268 50.712 48.7268 50.52C48.7268 50.04 49.0148 49.72 49.5908 49.56C50.4548 49.368 51.0468 49.16 51.3668 48.936C51.6868 48.68 51.8468 48.296 51.8468 47.784V37.416C51.8468 36.36 51.6868 35.592 51.3668 35.112C51.0468 34.632 50.5188 34.344 49.7828 34.248C49.5908 34.216 49.4468 34.12 49.3508 33.96C49.2548 33.8 49.2068 33.608 49.2068 33.384C49.2068 33.192 49.2548 33.016 49.3508 32.856C49.4788 32.696 49.6068 32.6 49.7348 32.568C51.1748 32.312 52.4388 31.96 53.5268 31.512C54.6468 31.064 55.8628 30.52 57.1748 29.88C57.6228 29.624 57.9428 29.496 58.1348 29.496C58.3268 29.496 58.4708 29.56 58.5668 29.688C58.6948 29.784 58.7588 29.912 58.7588 30.072L58.5668 31.848C58.2788 34.28 58.1348 36.04 58.1348 37.128V47.736C58.1348 48.184 58.2948 48.536 58.6148 48.792C58.9348 49.048 59.5428 49.304 60.4388 49.56C60.7268 49.656 60.9348 49.768 61.0628 49.896C61.2228 50.024 61.3028 50.216 61.3028 50.472C61.3028 50.888 61.0628 51.096 60.5828 51.096C59.9108 51.096 58.9348 51.064 57.6548 51C56.3748 50.936 55.4628 50.904 54.9188 50.904C54.3748 50.904 53.5268 50.936 52.3748 51C51.4148 51.096 50.4548 51.144 49.4948 51.144ZM54.7747 27.336C53.7508 27.336 52.8708 26.968 52.1348 26.232C51.3988 25.496 51.0308 24.616 51.0308 23.592C51.0308 22.504 51.3988 21.592 52.1348 20.856C52.8708 20.12 53.7508 19.752 54.7747 19.752C55.8628 19.752 56.7748 20.12 57.5108 20.856C58.2788 21.592 58.6628 22.504 58.6628 23.592C58.6628 24.616 58.2788 25.496 57.5108 26.232C56.7748 26.968 55.8628 27.336 54.7747 27.336ZM63.603 51.144C63.315 51.144 63.075 51.096 62.883 51C62.723 50.872 62.643 50.696 62.643 50.472C62.643 50.024 63.011 49.704 63.747 49.512C64.451 49.256 64.931 49.032 65.187 48.84C65.443 48.648 65.571 48.264 65.571 47.688V24.6C65.571 23.64 65.427 22.872 65.139 22.296C64.883 21.688 64.387 21.304 63.651 21.144C63.331 21.08 63.171 20.84 63.171 20.424C63.171 20.008 63.315 19.768 63.603 19.704C64.467 19.544 65.507 19.256 66.723 18.84C67.971 18.424 69.075 18.04 70.035 17.688L71.043 17.304C71.267 17.208 71.475 17.16 71.667 17.16C71.987 17.16 72.147 17.352 72.147 17.736C72.147 17.992 72.099 18.456 72.003 19.128C71.939 19.8 71.891 20.44 71.859 21.048V47.592C71.859 48.136 71.971 48.52 72.195 48.744C72.451 48.936 72.739 49.096 73.059 49.224C73.379 49.32 73.587 49.384 73.683 49.416C74.067 49.544 74.339 49.688 74.499 49.848C74.691 49.976 74.787 50.152 74.787 50.376C74.787 50.6 74.691 50.776 74.499 50.904C74.339 51 74.115 51.048 73.827 51.048C73.155 51.048 72.243 51.016 71.091 50.952L68.595 50.904C68.083 50.904 67.315 50.936 66.291 51C65.427 51.096 64.531 51.144 63.603 51.144ZM77.3385 51.144C77.1465 51.144 76.9705 51.096 76.8105 51C76.6505 50.872 76.5705 50.712 76.5705 50.52C76.5705 50.04 76.8585 49.72 77.4345 49.56C78.2985 49.368 78.8905 49.16 79.2105 48.936C79.5305 48.68 79.6905 48.296 79.6905 47.784V37.416C79.6905 36.36 79.5305 35.592 79.2105 35.112C78.8905 34.632 78.3625 34.344 77.6265 34.248C77.4345 34.216 77.2905 34.12 77.1945 33.96C77.0985 33.8 77.0505 33.608 77.0505 33.384C77.0505 33.192 77.0985 33.016 77.1945 32.856C77.3225 32.696 77.4505 32.6 77.5785 32.568C79.0185 32.312 80.2825 31.96 81.3705 31.512C82.4905 31.064 83.7065 30.52 85.0185 29.88C85.4665 29.624 85.7865 29.496 85.9785 29.496C86.1705 29.496 86.3145 29.56 86.4105 29.688C86.5385 29.784 86.6025 29.912 86.6025 30.072L86.4105 31.848C86.1225 34.28 85.9785 36.04 85.9785 37.128V47.736C85.9785 48.184 86.1385 48.536 86.4585 48.792C86.7785 49.048 87.3865 49.304 88.2825 49.56C88.5705 49.656 88.7785 49.768 88.9065 49.896C89.0665 50.024 89.1465 50.216 89.1465 50.472C89.1465 50.888 88.9065 51.096 88.4265 51.096C87.7545 51.096 86.7785 51.064 85.4985 51C84.2185 50.936 83.3065 50.904 82.7625 50.904C82.2185 50.904 81.3705 50.936 80.2185 51C79.2585 51.096 78.2985 51.144 77.3385 51.144ZM82.6185 27.336C81.5945 27.336 80.7145 26.968 79.9785 26.232C79.2425 25.496 78.8745 24.616 78.8745 23.592C78.8745 22.504 79.2425 21.592 79.9785 20.856C80.7145 20.12 81.5945 19.752 82.6185 19.752C83.7065 19.752 84.6185 20.12 85.3545 20.856C86.1225 21.592 86.5065 22.504 86.5065 23.592C86.5065 24.616 86.1225 25.496 85.3545 26.232C84.6185 26.968 83.7065 27.336 82.6185 27.336ZM99.8468 51.672C98.1828 51.672 96.6628 51.224 95.2868 50.328C93.9108 49.4 92.8228 48.152 92.0228 46.584C91.2548 45.016 90.8708 43.272 90.8708 41.352C90.8708 39.304 91.3348 37.448 92.2628 35.784C93.2228 34.088 94.5188 32.744 96.1508 31.752C97.7828 30.76 99.5908 30.264 101.575 30.264C102.855 30.264 104.055 30.488 105.175 30.936C106.327 31.384 107.303 32.024 108.103 32.856C108.391 33.144 108.535 33.432 108.535 33.72C108.535 34.04 108.231 34.504 107.623 35.112C107.047 35.688 106.583 35.976 106.231 35.976C105.943 35.976 105.687 35.912 105.463 35.784C105.271 35.656 104.983 35.432 104.599 35.112C103.767 34.408 102.919 33.848 102.055 33.432C101.223 32.984 100.503 32.76 99.8948 32.76C98.6468 32.76 97.7188 33.272 97.1108 34.296C96.5028 35.32 96.1988 36.952 96.1988 39.192C96.1988 41.56 96.7428 43.416 97.8308 44.76C98.9188 46.104 100.455 46.776 102.439 46.776C103.367 46.776 104.183 46.632 104.887 46.344C105.591 46.056 106.343 45.576 107.143 44.904C107.239 44.84 107.367 44.76 107.527 44.664C107.687 44.536 107.831 44.472 107.959 44.472C108.343 44.472 108.535 44.728 108.535 45.24C108.535 45.624 108.407 46.072 108.151 46.584C107.799 47.288 107.207 48.04 106.375 48.84C105.575 49.64 104.599 50.312 103.447 50.856C102.295 51.4 101.095 51.672 99.8468 51.672ZM120.642 51.672C118.754 51.672 117.026 51.24 115.458 50.376C113.89 49.512 112.658 48.328 111.762 46.824C110.866 45.288 110.418 43.56 110.418 41.64C110.418 39.624 110.914 37.736 111.906 35.976C112.93 34.216 114.29 32.824 115.986 31.8C117.714 30.744 119.618 30.216 121.698 30.216C123.618 30.216 125.394 30.68 127.026 31.608C128.658 32.504 129.938 33.736 130.866 35.304C131.826 36.84 132.306 38.488 132.306 40.248C132.306 42.36 131.858 44.28 130.962 46.008C130.066 47.736 128.738 49.112 126.978 50.136C125.25 51.16 123.138 51.672 120.642 51.672ZM121.602 49.56C122.914 49.56 123.906 49.016 124.578 47.928C125.25 46.808 125.586 44.632 125.586 41.4C125.586 38.776 125.154 36.616 124.29 34.92C123.458 33.192 122.354 32.328 120.978 32.328C119.986 32.328 119.154 32.664 118.482 33.336C117.938 33.944 117.554 34.824 117.33 35.976C117.138 37.128 117.042 38.616 117.042 40.44C117.042 41.976 117.234 43.448 117.618 44.856C118.034 46.264 118.578 47.4 119.25 48.264C119.954 49.128 120.738 49.56 121.602 49.56ZM135.374 51.144C135.15 51.144 134.926 51.08 134.702 50.952C134.51 50.824 134.414 50.664 134.414 50.472C134.414 50.088 134.782 49.768 135.518 49.512C136.158 49.32 136.622 49.112 136.91 48.888C137.198 48.664 137.342 48.264 137.342 47.688V36.696C137.342 35.096 136.846 34.2 135.854 34.008C135.502 33.944 135.326 33.656 135.326 33.144C135.326 32.696 135.486 32.424 135.806 32.328C136.926 32.072 138.142 31.72 139.454 31.272C140.766 30.824 141.854 30.376 142.718 29.928C143.134 29.672 143.422 29.544 143.582 29.544C143.87 29.544 144.014 29.736 144.014 30.12L143.918 31.08C143.822 32.232 143.774 32.824 143.774 32.856C143.774 33.272 143.806 33.512 143.87 33.576C145.054 32.456 146.19 31.624 147.278 31.08C148.398 30.536 149.662 30.264 151.07 30.264C152.798 30.264 154.206 30.888 155.294 32.136C156.414 33.384 156.974 35.048 156.974 37.128V47.688C156.974 48.264 157.118 48.664 157.406 48.888C157.694 49.112 158.158 49.32 158.798 49.512C159.438 49.736 159.758 50.056 159.758 50.472C159.758 50.664 159.678 50.824 159.518 50.952C159.358 51.08 159.166 51.144 158.942 51.144C157.982 51.144 157.07 51.096 156.206 51C155.182 50.936 154.398 50.904 153.854 50.904C153.31 50.904 152.526 50.936 151.502 51C150.702 51.096 149.806 51.144 148.814 51.144C148.59 51.144 148.398 51.08 148.238 50.952C148.078 50.824 147.998 50.664 147.998 50.472C147.998 50.056 148.318 49.736 148.958 49.512C149.566 49.32 149.998 49.112 150.254 48.888C150.51 48.664 150.638 48.264 150.638 47.688V38.136C150.638 36.92 150.366 35.976 149.822 35.304C149.278 34.6 148.526 34.232 147.566 34.2C146.894 34.2 146.286 34.312 145.742 34.536C145.198 34.728 144.622 35.032 144.014 35.448C143.758 35.672 143.63 35.976 143.63 36.36V47.688C143.63 48.264 143.758 48.664 144.014 48.888C144.27 49.08 144.718 49.288 145.358 49.512C145.998 49.736 146.318 50.056 146.318 50.472C146.318 50.664 146.238 50.824 146.078 50.952C145.918 51.08 145.726 51.144 145.502 51.144C144.542 51.144 143.678 51.096 142.91 51C141.886 50.936 141.118 50.904 140.606 50.904C140.062 50.904 139.246 50.936 138.158 51C137.294 51.096 136.366 51.144 135.374 51.144ZM180.187 51.768C178.811 51.768 177.467 51.496 176.155 50.952C174.843 50.408 173.771 49.608 172.939 48.552C172.107 47.496 171.691 46.232 171.691 44.76C171.691 42.84 172.363 41 173.707 39.24C175.051 37.448 176.907 35.992 179.275 34.872L180.235 34.392L179.851 33.96C179.755 33.864 179.403 33.512 178.795 32.904C178.187 32.264 177.675 31.528 177.259 30.696C176.843 29.864 176.635 29.016 176.635 28.152C176.635 27.032 177.003 26.024 177.739 25.128C178.475 24.232 179.499 23.528 180.811 23.016C182.155 22.472 183.659 22.2 185.323 22.2C186.763 22.2 188.043 22.44 189.163 22.92C190.283 23.368 191.163 23.992 191.803 24.792C192.443 25.592 192.763 26.472 192.763 27.432C192.763 28.808 192.331 29.912 191.467 30.744C190.635 31.576 189.371 32.312 187.675 32.952L186.619 33.336L187.579 34.344C188.923 35.688 190.715 37.544 192.955 39.912L193.819 40.872L194.491 40.248C195.387 39.384 196.123 38.456 196.699 37.464C197.275 36.44 197.563 35.64 197.563 35.064C197.563 34.328 197.099 33.8 196.171 33.48C196.107 33.448 195.979 33.384 195.787 33.288C195.595 33.192 195.451 33.096 195.355 33C195.259 32.872 195.211 32.728 195.211 32.568C195.211 32.28 195.323 32.104 195.547 32.04C195.803 31.944 196.155 31.896 196.603 31.896C196.955 31.896 197.611 31.96 198.571 32.088C199.723 32.216 200.603 32.28 201.211 32.28C201.915 32.28 203.067 32.088 204.667 31.704C206.075 31.384 207.003 31.224 207.451 31.224C207.643 31.224 207.819 31.288 207.979 31.416C208.139 31.544 208.219 31.688 208.219 31.848C208.219 32.136 208.059 32.408 207.739 32.664C207.451 32.92 207.083 33.08 206.635 33.144C205.099 33.4 203.627 34.232 202.219 35.64C200.619 37.176 199.003 38.648 197.371 40.056L194.923 42.312L195.787 43.368C197.035 44.872 198.075 45.992 198.907 46.728C199.739 47.432 200.603 47.784 201.499 47.784C202.843 47.784 204.107 47.544 205.291 47.064C205.387 47.032 205.547 46.984 205.771 46.92C205.995 46.824 206.203 46.776 206.395 46.776C206.651 46.776 206.843 46.824 206.971 46.92C207.131 47.016 207.211 47.192 207.211 47.448C207.211 47.928 206.843 48.52 206.107 49.224C205.403 49.896 204.443 50.488 203.227 51C202.011 51.48 200.715 51.72 199.339 51.72C197.515 51.72 196.043 51.4 194.923 50.76C193.803 50.088 192.587 48.952 191.275 47.352L190.411 46.344L190.123 46.632C188.715 48.296 187.163 49.576 185.467 50.472C183.771 51.336 182.011 51.768 180.187 51.768ZM186.187 31.704C186.635 31.352 186.971 30.792 187.195 30.024C187.419 29.224 187.531 28.36 187.531 27.432C187.531 26.44 187.323 25.608 186.907 24.936C186.491 24.264 185.883 23.928 185.083 23.928C184.475 23.928 183.931 24.168 183.451 24.648C182.971 25.128 182.731 25.736 182.731 26.472C182.731 27.624 182.907 28.552 183.259 29.256C183.611 29.928 184.091 30.584 184.699 31.224L185.659 32.184L186.187 31.704ZM183.691 47.208C184.683 47.208 185.595 47.08 186.427 46.824C187.291 46.568 188.075 46.088 188.779 45.384L189.115 45.048L188.395 44.136C185.995 41.224 183.819 38.68 181.867 36.504L181.291 35.832L180.427 36.312C178.827 37.208 178.027 38.824 178.027 41.16C178.027 43.016 178.539 44.488 179.563 45.576C180.587 46.664 181.963 47.208 183.691 47.208ZM228.668 51.672C225.756 51.672 223.228 51 221.084 49.656C220.572 49.336 220.236 48.952 220.076 48.504C219.788 47.672 219.564 46.632 219.404 45.384C219.276 44.136 219.244 42.856 219.308 41.544C219.308 41.128 219.628 40.92 220.268 40.92C220.556 40.92 220.764 40.968 220.892 41.064C221.02 41.128 221.148 41.272 221.276 41.496C221.98 43.96 223.036 45.912 224.444 47.352C225.852 48.792 227.468 49.512 229.292 49.512C230.7 49.512 231.804 49.048 232.604 48.12C233.436 47.16 233.852 46.072 233.852 44.856C233.852 43.864 233.66 43.032 233.276 42.36C232.892 41.656 232.332 41.032 231.596 40.488C230.86 39.912 229.788 39.24 228.38 38.472C226.556 37.448 225.116 36.552 224.06 35.784C223.004 35.016 222.092 34.024 221.324 32.808C220.588 31.592 220.22 30.12 220.22 28.392C220.22 26.568 220.7 24.952 221.66 23.544C222.652 22.136 223.996 21.048 225.692 20.28C227.388 19.512 229.292 19.128 231.404 19.128C232.524 19.128 233.628 19.24 234.716 19.464C235.836 19.688 236.78 19.96 237.548 20.28C237.932 20.44 238.204 20.616 238.364 20.808C238.556 21 238.716 21.336 238.844 21.816C239.228 23.352 239.42 25.224 239.42 27.432C239.42 27.592 239.34 27.736 239.18 27.864C239.02 27.992 238.812 28.056 238.556 28.056C238.268 28.056 237.996 27.992 237.74 27.864C237.516 27.704 237.372 27.512 237.308 27.288C236.764 25.368 235.964 23.912 234.908 22.92C233.852 21.928 232.556 21.432 231.02 21.432C228.044 21.432 226.556 22.872 226.556 25.752C226.556 26.776 227.068 27.752 228.092 28.68C229.116 29.608 230.764 30.728 233.036 32.04C235.628 33.608 237.452 35.128 238.508 36.6C239.564 38.072 240.092 39.88 240.092 42.024C240.092 45.224 239.068 47.64 237.02 49.272C235.004 50.872 232.22 51.672 228.668 51.672ZM248.067 51.672C246.787 51.672 245.667 51.24 244.707 50.376C243.747 49.48 243.267 48.424 243.267 47.208C243.267 46.12 243.587 45.224 244.227 44.52C244.899 43.784 245.939 43.112 247.347 42.504L251.619 40.632C252.259 40.344 252.643 40.088 252.771 39.864C252.931 39.64 253.011 39.224 253.011 38.616L253.059 35.88C253.091 34.952 252.931 34.232 252.579 33.72C252.227 33.208 251.699 32.952 250.995 32.952C250.611 32.952 250.195 33.048 249.747 33.24C249.331 33.4 249.011 33.592 248.787 33.816C248.595 34.04 248.499 34.376 248.499 34.824C248.499 35.048 248.515 35.288 248.547 35.544C248.579 35.768 248.595 35.992 248.595 36.216C248.595 36.536 248.051 36.936 246.963 37.416C245.907 37.896 245.027 38.136 244.323 38.136C244.067 38.136 243.859 38.04 243.699 37.848C243.539 37.656 243.459 37.416 243.459 37.128C243.459 36.616 243.635 36.12 243.987 35.64C244.339 35.16 244.915 34.584 245.715 33.912C246.963 32.888 248.371 32.024 249.939 31.32C251.507 30.616 252.819 30.264 253.875 30.264C255.571 30.264 256.931 30.824 257.955 31.944C258.979 33.032 259.475 34.488 259.443 36.312L259.203 46.008C259.171 46.744 259.299 47.368 259.587 47.88C259.875 48.392 260.227 48.648 260.643 48.648C261.251 48.648 261.779 48.44 262.227 48.024C262.323 47.928 262.419 47.88 262.515 47.88C262.675 47.88 262.803 47.944 262.899 48.072C263.027 48.168 263.091 48.28 263.091 48.408C263.091 48.824 262.803 49.32 262.227 49.896C261.043 51.08 259.699 51.672 258.195 51.672C257.267 51.672 256.451 51.448 255.747 51C255.043 50.584 254.371 49.896 253.731 48.936H253.635C252.579 49.928 251.619 50.632 250.755 51.048C249.923 51.464 249.027 51.672 248.067 51.672ZM250.947 48.552C251.555 48.552 252.067 48.312 252.483 47.832C252.707 47.48 252.819 47.064 252.819 46.584L252.963 43.128C252.963 42.616 252.803 42.36 252.483 42.36C252.323 42.36 252.131 42.424 251.907 42.552C250.883 43.032 250.163 43.512 249.747 43.992C249.363 44.472 249.171 45.192 249.171 46.152C249.171 46.984 249.347 47.592 249.699 47.976C250.051 48.36 250.467 48.552 250.947 48.552ZM264.65 51.144C264.362 51.144 264.122 51.096 263.93 51C263.77 50.872 263.69 50.696 263.69 50.472C263.69 50.024 264.058 49.704 264.794 49.512C265.498 49.256 265.978 49.032 266.234 48.84C266.49 48.648 266.618 48.264 266.618 47.688V24.6C266.618 23.64 266.474 22.872 266.186 22.296C265.93 21.688 265.434 21.304 264.698 21.144C264.378 21.08 264.218 20.84 264.218 20.424C264.218 20.008 264.362 19.768 264.65 19.704C265.514 19.544 266.554 19.256 267.77 18.84C269.018 18.424 270.122 18.04 271.082 17.688L272.09 17.304C272.314 17.208 272.522 17.16 272.714 17.16C273.034 17.16 273.194 17.352 273.194 17.736C273.194 17.992 273.146 18.456 273.05 19.128C272.986 19.8 272.938 20.44 272.906 21.048V47.592C272.906 48.136 273.018 48.52 273.242 48.744C273.498 48.936 273.786 49.096 274.106 49.224C274.426 49.32 274.634 49.384 274.73 49.416C275.114 49.544 275.386 49.688 275.546 49.848C275.738 49.976 275.834 50.152 275.834 50.376C275.834 50.6 275.738 50.776 275.546 50.904C275.386 51 275.162 51.048 274.874 51.048C274.202 51.048 273.29 51.016 272.138 50.952L269.642 50.904C269.13 50.904 268.362 50.936 267.338 51C266.474 51.096 265.578 51.144 264.65 51.144ZM286.371 51.672C284.291 51.672 282.707 51.144 281.619 50.088C280.563 49.032 280.035 47.512 280.035 45.528V34.488C280.035 34.2 279.923 33.992 279.699 33.864C279.475 33.736 279.091 33.656 278.547 33.624H277.923C277.731 33.624 277.555 33.448 277.395 33.096C277.235 32.744 277.155 32.408 277.155 32.088C277.155 31.864 277.251 31.704 277.443 31.608C279.043 31.032 281.379 29.4 284.451 26.712C284.515 26.648 284.627 26.568 284.787 26.472C284.947 26.344 285.091 26.248 285.219 26.184C285.347 26.12 285.491 26.088 285.651 26.088C285.971 26.088 286.179 26.152 286.275 26.28C286.371 26.408 286.403 26.664 286.371 27.048L286.083 29.88V30.072C286.083 30.616 286.467 30.888 287.235 30.888H292.947C293.043 30.888 293.139 31 293.235 31.224C293.331 31.448 293.379 31.656 293.379 31.848C293.379 32.328 293.315 32.776 293.187 33.192C293.059 33.576 292.915 33.768 292.755 33.768H288.291C287.555 33.768 287.043 33.864 286.755 34.056C286.499 34.216 286.371 34.52 286.371 34.968V44.04C286.371 45.48 286.643 46.568 287.187 47.304C287.731 48.04 288.483 48.408 289.443 48.408C290.179 48.408 290.739 48.36 291.123 48.264C291.539 48.136 291.875 48.008 292.131 47.88C292.419 47.752 292.595 47.672 292.659 47.64C292.787 47.576 292.883 47.544 292.947 47.544C293.107 47.544 293.235 47.64 293.331 47.832C293.427 47.992 293.475 48.216 293.475 48.504C293.475 48.728 293.107 49.112 292.371 49.656C291.667 50.168 290.771 50.632 289.683 51.048C288.595 51.464 287.491 51.672 286.371 51.672Z" fill="white"/>
</svg>
